<svg width="53" height="33" viewBox="0 0 53 33" fill="none" xmlns="http://www.w3.org/2000/svg">
<rect width="52" height="33" transform="translate(0.0625)" fill="#003399"/>
<path d="M26.7076 6.93297L27.7238 6.19449H26.4682L26.0793 5L25.6915 6.19449H24.4359L25.4521 6.93297L25.0631 8.12747L26.0793 7.38899L27.0954 8.12747L26.7076 6.93297ZM26.7076 27.6786L27.7238 26.9402H26.4682L26.0793 25.7457L25.6915 26.9402H24.4359L25.4521 27.6786L25.0631 28.8731L26.0793 28.1347L27.0954 28.8731L26.7076 27.6786ZM16.3354 17.3052L17.3515 16.5667H16.0948L15.707 15.3722L15.318 16.5667H14.0625L15.0787 17.3052L14.6909 18.4997L15.707 17.7612L16.7232 18.4997L16.3354 17.3052ZM17.6603 12.1765L18.6765 11.4381H17.4198L17.032 10.2436L16.6442 11.4381H15.3875L16.4036 12.1765L16.0158 13.371L17.032 12.6326L18.0481 13.371L17.6603 12.1765ZM17.6603 22.4925L18.6765 21.754H17.4198L17.032 20.5595L16.6442 21.754H15.3875L16.4036 22.4925L16.0158 23.687L17.032 22.9485L18.0481 23.687L17.6603 22.4925ZM21.5215 8.32256L22.5377 7.58408H21.2809L20.8931 6.38959L20.5053 7.58408H19.2486L20.2648 8.32256L19.877 9.51706L20.8931 8.77858L21.9093 9.51706L21.5215 8.32256ZM21.5215 26.3561L22.5377 25.6176H21.2809L20.8931 24.4231L20.5053 25.6176H19.2486L20.2648 26.3561L19.877 27.5506L20.8931 26.8133L21.9093 27.5506L21.5215 26.3561ZM35.7896 17.3052L34.7735 16.5667H36.0302L36.418 15.3722L36.807 16.5667H38.0625L37.0463 17.3052L37.4341 18.4997L36.418 17.7612L35.4018 18.4997L35.7896 17.3052ZM34.4647 12.1765L33.4485 11.4381H34.7052L35.093 10.2436L35.4808 11.4381H36.7375L35.7214 12.1765L36.1092 13.371L35.093 12.6326L34.0769 13.371L34.4647 12.1765ZM34.4647 22.4925L33.4485 21.754H34.7052L35.093 20.5595L35.4808 21.754H36.7375L35.7214 22.4925L36.1092 23.687L35.093 22.9485L34.0769 23.687L34.4647 22.4925ZM30.6035 8.32256L29.5873 7.58408H30.8441L31.2319 6.38959L31.6197 7.58408H32.8764L31.8602 8.32256L32.248 9.51706L31.2319 8.77858L30.2157 9.51706L30.6035 8.32256ZM30.6035 26.3561L29.5873 25.6176H30.8441L31.2319 24.4231L31.6197 25.6176H32.8764L31.8602 26.3561L32.248 27.5506L31.2319 26.8133L30.2157 27.5506L30.6035 26.3561Z" fill="#FFCC00"/>
</svg>
