<svg width="53" height="33" viewBox="0 0 53 33" fill="none" xmlns="http://www.w3.org/2000/svg">
<rect width="52" height="33" transform="translate(0.4375)" fill="white"/>
<path d="M30.5291 10.4928C28.8666 9.32899 26.8098 8.87321 24.8113 9.22576C22.8128 9.5783 21.0361 10.7103 19.8721 12.3727C19.3225 13.2048 19.1193 14.2184 19.3058 15.198C19.4923 16.1776 20.0537 17.0457 20.8706 17.6176C21.6875 18.1895 22.6953 18.42 23.6796 18.2601C24.6638 18.1001 25.5468 17.5624 26.1406 16.7612C26.4288 16.3497 26.7953 15.9989 27.2191 15.7289C27.6429 15.459 28.1157 15.2751 28.6106 15.1879C29.1054 15.1007 29.6126 15.1118 30.1032 15.2206C30.5937 15.3294 31.0581 15.5337 31.4697 15.8219C31.8812 16.1102 32.232 16.4767 32.502 16.9005C32.7719 17.3243 32.9558 17.7971 33.043 18.292C33.1302 18.7868 33.1191 19.294 33.0103 19.7846C32.9015 20.2751 32.6972 20.7394 32.409 21.151C32.9854 20.3278 33.3941 19.3991 33.6116 18.4179C33.8291 17.4367 33.8512 16.4223 33.6767 15.4326C33.5021 14.4428 33.1343 13.4972 32.5942 12.6496C32.0541 11.802 31.3524 11.0692 30.5291 10.4928Z" fill="#C60C30"/>
<path d="M31.4692 15.8222C30.6381 15.2402 29.6098 15.0121 28.6105 15.1881C27.6113 15.3641 26.7229 15.9299 26.1407 16.7609C25.5484 17.5662 24.6645 18.1078 23.678 18.2699C22.6916 18.432 21.6808 18.2017 20.862 17.6283C20.0431 17.0548 19.4811 16.1837 19.2962 15.2013C19.1112 14.2189 19.318 13.203 19.8723 12.3711C19.279 13.1934 18.8551 14.1255 18.6251 15.1131C18.3952 16.1007 18.3638 17.1241 18.5329 18.1239C18.7019 19.1237 19.0679 20.08 19.6098 20.9371C20.1516 21.7942 20.8584 22.5351 21.689 23.1167C22.5196 23.6983 23.4576 24.109 24.4483 24.325C25.4391 24.5409 26.4629 24.5578 27.4602 24.3746C28.4575 24.1915 29.4085 23.8119 30.2579 23.258C31.1072 22.7041 31.838 21.9869 32.4078 21.1481C32.6961 20.7369 32.9006 20.2728 33.0094 19.7825C33.1183 19.2922 33.1294 18.7853 33.0423 18.2906C32.9551 17.796 32.7713 17.3234 32.5014 16.8999C32.2314 16.4763 31.8807 16.1101 31.4692 15.8222Z" fill="#003478"/>
<path d="M34.2188 26.4182L36.6777 23.4874L37.6547 24.3075L35.1958 27.2383L34.2188 26.4182ZM37.4965 22.5118L39.9554 19.5823L40.9323 20.4023L38.4734 23.3318L37.4965 22.5118ZM36.1727 28.0609L38.6316 25.1314L39.6085 25.9514L37.1496 28.8809L36.1727 28.0609ZM39.4529 24.1506L41.9144 21.2211L42.8913 22.0424L40.4298 24.9707L39.4529 24.1506ZM38.1253 29.701L40.5867 26.7715L41.5624 27.5915L39.1022 30.521L38.1253 29.701ZM41.4042 25.792L43.8618 22.8587L44.84 23.6787L42.3824 26.6121L41.4042 25.792ZM41.4093 7.73032L42.3863 6.91026L44.8477 9.84232L43.8695 10.6624L41.4093 7.73032ZM38.1291 3.82006L39.106 3L41.5649 5.93206L40.5867 6.75084L38.1291 3.82006ZM36.174 5.46272L37.1509 4.64267L42.89 11.4812L41.9131 12.3012L36.174 5.46272ZM34.2201 7.10029L35.1983 6.28023L37.6559 9.21101L36.679 10.0298L34.2201 7.10029ZM37.4978 11.0093L38.4747 10.1892L40.9362 13.1187L39.9605 13.9388L37.4978 11.0093ZM11.3465 20.401L12.3234 19.581L18.0613 26.4208L17.0831 27.2408L11.3465 20.401ZM9.39518 22.0412L10.3708 21.2224L12.831 24.1532L11.8528 24.9732L9.39518 22.0412ZM12.669 25.9514L13.646 25.1314L16.1074 28.0609L15.1305 28.8809L12.669 25.9514ZM7.43878 23.68L8.4157 22.8599L14.1548 29.6984L13.1766 30.5185L7.43878 23.68ZM7.4375 9.83977L13.1741 3.00128L14.1523 3.82006L8.41315 10.6598L7.4375 9.83977ZM9.39136 11.4812L15.1305 4.64139L16.1074 5.46145L10.3683 12.2999L9.39136 11.4812ZM11.3465 13.12L17.0856 6.28023L18.0625 7.10029L12.3234 13.9401L11.3465 13.12Z" fill="#292F33"/>
</svg>
