<svg width="45" height="49" viewBox="0 0 45 49" fill="none" xmlns="http://www.w3.org/2000/svg">
<path d="M40.8605 12.43C40.5205 12.43 40.1521 12.5433 39.7555 12.77C39.3588 12.9966 39.0755 13.3083 38.9055 13.705C38.7355 14.1016 38.6788 14.5266 38.7355 14.98C38.7921 15.4333 38.9905 15.83 39.3305 16.17C39.6705 16.51 40.0671 16.7083 40.5205 16.765C40.9738 16.8216 41.3988 16.765 41.7955 16.595C42.1921 16.425 42.5038 16.17 42.7305 15.83C42.9571 15.49 43.0705 15.0366 43.0705 14.47C43.0705 13.9033 42.8721 13.4216 42.4755 13.025C42.0788 12.6283 41.5405 12.43 40.8605 12.43ZM40.8605 15.66C40.4071 15.66 40.0955 15.4333 39.9255 14.98C39.7555 14.5266 39.8405 14.1583 40.1805 13.875C40.5205 13.5916 40.8888 13.535 41.2855 13.705C41.6821 13.875 41.8805 14.13 41.8805 14.47C41.8805 14.81 41.7955 15.0933 41.6255 15.32C41.4555 15.5466 41.2005 15.66 40.8605 15.66ZM15.3605 6.98998C15.8138 6.98998 16.2671 6.84831 16.7205 6.56498C17.1738 6.28165 17.5138 5.88498 17.7405 5.37498C17.9671 4.86498 18.0238 4.35498 17.9105 3.84498C17.7971 3.33498 17.5421 2.90998 17.1455 2.56998C16.7488 2.22998 16.2955 2.00331 15.7855 1.88998C15.2755 1.77665 14.7938 1.80498 14.3405 1.97498C13.8871 2.14498 13.5188 2.45665 13.2355 2.90998C12.9521 3.36331 12.8105 3.90165 12.8105 4.52498C12.8105 5.14831 13.0371 5.71498 13.4905 6.22498C13.9438 6.73498 14.5671 6.98998 15.3605 6.98998ZM15.3605 3.07998C15.9271 3.07998 16.3521 3.36331 16.6355 3.92998C16.9188 4.49665 16.8338 5.00665 16.3805 5.45998C15.9271 5.91331 15.4171 5.99831 14.8505 5.71498C14.2838 5.43165 14.0005 5.03498 14.0005 4.52498C14.0005 4.01498 14.1138 3.64665 14.3405 3.41998C14.5671 3.19331 14.9071 3.07998 15.3605 3.07998ZM25.3905 22.12C25.3905 21.44 25.1355 20.845 24.6255 20.335C24.1155 19.825 23.4921 19.57 22.7555 19.57C22.0188 19.57 21.3955 19.825 20.8855 20.335C20.3755 20.845 20.1205 21.44 20.1205 22.12C20.1205 22.8 20.3755 23.395 20.8855 23.905C21.3955 24.415 22.0188 24.67 22.7555 24.67C23.4921 24.67 24.1155 24.415 24.6255 23.905C25.1355 23.395 25.3905 22.8 25.3905 22.12ZM22.8405 23.48C22.1605 23.48 21.7071 23.1966 21.4805 22.63C21.2538 22.0633 21.3671 21.5533 21.8205 21.1C22.2738 20.6466 22.7838 20.5333 23.3505 20.76C23.9171 20.9866 24.2005 21.355 24.2005 21.865C24.2005 22.375 24.0588 22.7716 23.7755 23.055C23.4921 23.3383 23.1805 23.48 22.8405 23.48ZM5.67047 15.15C6.1238 15.15 6.57714 15.0083 7.03047 14.725C7.4838 14.4416 7.8238 14.045 8.05047 13.535C8.27714 13.025 8.3338 12.515 8.22047 12.005C8.10714 11.495 7.85214 11.0416 7.45547 10.645C7.0588 10.2483 6.60547 10.0216 6.09547 9.96498C5.58547 9.90831 5.1038 9.96498 4.65047 10.135C4.19714 10.305 3.8288 10.6166 3.54547 11.07C3.26214 11.5233 3.12047 12.0616 3.12047 12.685C3.12047 13.3083 3.34714 13.875 3.80047 14.385C4.2538 14.895 4.87714 15.15 5.67047 15.15ZM5.67047 11.07C6.23714 11.07 6.6338 11.3533 6.86047 11.92C7.08714 12.4866 7.00214 12.9966 6.60547 13.45C6.2088 13.9033 5.72714 14.0166 5.16047 13.79C4.5938 13.5633 4.31047 13.195 4.31047 12.685C4.31047 12.175 4.4238 11.7783 4.65047 11.495C4.87714 11.2116 5.21714 11.07 5.67047 11.07ZM44.7705 14.47C44.6571 13.45 44.2605 12.6 43.5805 11.92C42.9005 11.24 42.0788 10.9 41.1155 10.9C40.1521 10.9 39.3305 11.24 38.6505 11.92C36.6105 9.99331 34.2305 8.40665 31.5105 7.15998C28.3371 5.68665 25.2771 4.94998 22.3305 4.94998C21.5371 4.94998 20.6871 5.00665 19.7805 5.11998L19.9505 4.26998C19.8371 3.02331 19.3555 2.00331 18.5055 1.20998C17.6555 0.416645 16.6355 0.0199814 15.4455 0.0199814C14.2555 0.0199814 13.2355 0.416645 12.3855 1.20998C11.5355 2.00331 11.0821 2.99498 11.0255 4.18498C10.9688 5.37498 11.2805 6.42331 11.9605 7.32998L12.1305 7.49998C10.9971 8.06665 9.92047 8.74665 8.90047 9.53998C8.10714 8.63331 7.08714 8.17998 5.84047 8.17998C4.5938 8.17998 3.54547 8.57664 2.69547 9.36998C1.84547 10.1633 1.39214 11.1266 1.33547 12.26C1.2788 13.3933 1.59047 14.4133 2.27047 15.32L2.95047 16.34C2.15714 17.9266 1.50547 19.655 0.995469 21.525C0.485469 23.395 0.230469 25.2366 0.230469 27.05C0.230469 30.9033 1.22214 34.5583 3.20547 38.015C5.1888 41.4716 7.88047 44.1633 11.2805 46.09C14.6805 48.0166 18.3355 48.98 22.2455 48.98C26.1555 48.98 29.8388 48.0166 33.2955 46.09C36.7521 44.1633 39.4438 41.4716 41.3705 38.015C43.2971 34.5583 44.2605 30.9033 44.2605 27.05C44.2605 25.8033 44.1188 24.3583 43.8355 22.715C43.5521 21.0716 43.2405 19.6266 42.9005 18.38L43.9205 17.02C44.4871 16.2266 44.7705 15.3766 44.7705 14.47ZM12.3005 4.26998C12.3005 3.47665 12.6121 2.76831 13.2355 2.14498C13.8588 1.52165 14.5955 1.20998 15.4455 1.20998C16.2955 1.20998 17.0321 1.52165 17.6555 2.14498C18.2788 2.76831 18.6188 3.50498 18.6755 4.35498C18.7321 5.20498 18.4771 5.91331 17.9105 6.47998L15.5305 9.87998L12.9805 6.47998C12.4138 5.91331 12.1871 5.17665 12.3005 4.26998ZM2.61047 12.43C2.61047 11.6366 2.92214 10.9283 3.54547 10.305C4.1688 9.68165 4.90547 9.36998 5.75547 9.36998C6.60547 9.36998 7.34214 9.68165 7.96547 10.305C8.5888 10.9283 8.9288 11.6366 8.98547 12.43C9.04214 13.2233 8.78714 13.96 8.22047 14.64L5.84047 18.04L3.29047 14.64C2.7238 13.96 2.49714 13.2233 2.61047 12.43ZM3.80047 17.36L5.33047 19.4C5.4438 19.5133 5.58547 19.57 5.75547 19.57C5.92547 19.57 6.06714 19.5133 6.18047 19.4L9.24047 15.32C9.80714 14.64 10.1188 13.8466 10.1755 12.94C10.2321 12.0333 10.0338 11.1833 9.58047 10.39C10.6005 9.70998 11.6771 9.02998 12.8105 8.34998L15.0205 11.24C15.1338 11.4666 15.2755 11.58 15.4455 11.58C15.6155 11.58 15.7571 11.4666 15.8705 11.24L18.9305 7.32998C19.1571 6.98998 19.3271 6.64998 19.4405 6.30998H20.2905L22.6705 9.87998C23.0105 10.3333 23.1805 10.815 23.1805 11.325C23.1805 11.835 23.0105 12.3166 22.6705 12.77L21.9905 13.62C21.5371 14.0733 21.0271 14.3 20.4605 14.3L19.6105 14.13C19.0438 14.13 18.5055 14.2433 17.9955 14.47C17.4855 14.6966 17.0605 15.0933 16.7205 15.66C16.3805 16.2266 15.8705 16.4533 15.1905 16.34L13.3205 16.17C12.7538 16.0566 12.2155 16.1133 11.7055 16.34C11.1955 16.5666 10.7705 16.9066 10.4305 17.36C10.0905 17.8133 9.92047 18.3233 9.92047 18.89C9.92047 19.4566 10.0905 19.9666 10.4305 20.42L11.6205 22.29C12.0738 23.0833 12.7538 23.48 13.6605 23.48C14.1138 23.48 14.5105 23.3666 14.8505 23.14L16.0405 22.46C16.3805 22.3466 16.7771 22.29 17.2305 22.29C17.6838 22.29 18.0805 22.3466 18.4205 22.46C18.5338 23.3666 18.8738 24.2166 19.4405 25.01L22.3305 28.92C22.5571 29.1466 22.7555 29.26 22.9255 29.26C23.0955 29.26 23.2371 29.1466 23.3505 28.92L24.8805 26.88L26.9205 29.26C27.0338 29.4866 27.0905 29.7133 27.0905 29.94C27.0905 30.1666 26.9771 30.3366 26.7505 30.45L24.3705 32.32C23.8038 32.7733 23.4071 33.3966 23.1805 34.19L22.3305 36.57C22.3305 36.7966 22.2171 37.0233 21.9905 37.25L21.3105 38.1C20.7438 38.78 20.4038 39.5733 20.2905 40.48C20.2905 40.9333 20.0638 41.2733 19.6105 41.5C19.3838 41.5 19.1855 41.4716 19.0155 41.415C18.8455 41.3583 18.7605 41.2166 18.7605 40.99L18.0805 36.74C17.9671 36.1733 17.7405 35.6633 17.4005 35.21L14.8505 31.81C14.6238 31.5833 14.4538 31.2433 14.3405 30.79L13.4905 27.73C13.3771 27.1633 13.0938 26.6816 12.6405 26.285C12.1871 25.8883 11.6771 25.6333 11.1105 25.52L10.9405 25.35C10.6005 25.2366 10.2605 25.0666 9.92047 24.84L8.39047 23.31C8.1638 23.0833 7.93714 22.8 7.71047 22.46C7.37047 21.78 6.86047 21.2983 6.18047 21.015C5.50047 20.7316 4.7638 20.6466 3.97047 20.76L2.27047 21.27C2.61047 19.91 3.12047 18.6066 3.80047 17.36ZM19.6105 21.95C19.7238 21.1566 20.0638 20.4483 20.6305 19.825C21.1971 19.2016 21.9338 18.89 22.8405 18.89C23.7471 18.89 24.5121 19.2016 25.1355 19.825C25.7588 20.4483 26.0988 21.185 26.1555 22.035C26.2121 22.885 25.9571 23.5933 25.3905 24.16L22.8405 27.56L20.2905 24.16C19.8371 23.5933 19.6105 22.8566 19.6105 21.95ZM43.0705 27.05C43.0705 30.79 42.1355 34.2466 40.2655 37.42C38.3955 40.5933 35.8738 43.115 32.7005 44.985C29.5271 46.855 26.0705 47.79 22.3305 47.79C18.5905 47.79 15.1055 46.855 11.8755 44.985C8.64547 43.115 6.09547 40.5933 4.22547 37.42C2.35547 34.2466 1.42047 30.79 1.42047 27.05C1.42047 25.5766 1.59047 24.1033 1.93047 22.63L4.31047 21.95C4.7638 21.8366 5.21714 21.8933 5.67047 22.12C6.1238 22.3466 6.4638 22.6583 6.69047 23.055C6.91714 23.4516 7.20047 23.82 7.54047 24.16L9.24047 25.69C9.58047 26.1433 10.0905 26.4266 10.7705 26.54H10.9405C11.6205 26.7666 12.0738 27.2766 12.3005 28.07L13.1505 31.13C13.2638 31.6966 13.4905 32.2066 13.8305 32.66L16.5505 36.06C16.7771 36.2866 16.8905 36.57 16.8905 36.91L17.5705 41.16C17.6838 41.7266 17.9955 42.1516 18.5055 42.435C19.0155 42.7183 19.5538 42.7466 20.1205 42.52C20.9138 42.18 21.3671 41.5566 21.4805 40.65C21.5938 39.97 21.8205 39.3466 22.1605 38.78L23.0105 37.93C23.2371 37.7033 23.4071 37.3633 23.5205 36.91L24.2005 34.53C24.4271 33.9633 24.7671 33.51 25.2205 33.17L27.4305 31.47C27.8838 31.13 28.1388 30.6766 28.1955 30.11C28.2521 29.5433 28.1105 29.0333 27.7705 28.58L25.5605 25.86L26.4105 25.01C27.0905 24.1033 27.4021 23.055 27.3455 21.865C27.2888 20.675 26.8355 19.6833 25.9855 18.89C25.1355 18.0966 24.1438 17.7 23.0105 17.7C21.8771 17.7 20.9138 18.04 20.1205 18.72C19.3271 19.4 18.8171 20.25 18.5905 21.27C17.4571 20.93 16.4371 20.9866 15.5305 21.44L14.3405 22.12C14.0005 22.2333 13.6605 22.2616 13.3205 22.205C12.9805 22.1483 12.7538 21.95 12.6405 21.61L11.2805 19.74C10.9405 19.1733 10.9688 18.6066 11.3655 18.04C11.7621 17.4733 12.3571 17.2466 13.1505 17.36L15.0205 17.53C15.5871 17.6433 16.1255 17.5583 16.6355 17.275C17.1455 16.9916 17.5705 16.5666 17.9105 16C18.2505 15.4333 18.7605 15.2066 19.4405 15.32L20.2905 15.49C21.4238 15.6033 22.2738 15.2066 22.8405 14.3L23.5205 13.45C24.0871 12.8833 24.3705 12.2033 24.3705 11.41C24.3705 10.6166 24.1438 9.87998 23.6905 9.19998L21.6505 6.13998H22.3305C25.1638 6.13998 28.0538 6.81998 31.0005 8.17998C31.9071 8.63331 32.8138 9.08665 33.7205 9.53998L32.0205 12.26C31.7938 12.7133 31.7088 13.1666 31.7655 13.62C31.8221 14.0733 32.0205 14.5266 32.3605 14.98C32.8138 15.4333 33.3805 15.7166 34.0605 15.83H34.4005C35.0805 15.9433 35.5055 16.3116 35.6755 16.935C35.8455 17.5583 35.7038 18.04 35.2505 18.38L32.3605 20.93C31.6805 21.4966 31.3405 22.1766 31.3405 22.97V23.65C31.3405 24.5566 31.7371 25.2366 32.5305 25.69C32.8705 25.9166 33.0405 26.2566 33.0405 26.71L33.2105 27.39C33.2105 27.9566 33.4371 28.4383 33.8905 28.835C34.3438 29.2316 34.8538 29.43 35.4205 29.43H37.1205C37.8005 29.43 38.4521 29.2316 39.0755 28.835C39.6988 28.4383 40.1238 27.9 40.3505 27.22L40.5205 27.05C40.7471 26.4833 41.1438 26.2 41.7105 26.2L43.0705 26.03V27.05ZM42.9005 24.84L42.0505 25.01H41.5405C41.0871 25.01 40.6621 25.1516 40.2655 25.435C39.8688 25.7183 39.5571 26.0866 39.3305 26.54V26.71C39.1038 27.1633 38.7921 27.5316 38.3955 27.815C37.9988 28.0983 37.5738 28.24 37.1205 28.24H35.4205C35.0805 28.24 34.8255 28.1266 34.6555 27.9C34.4855 27.6733 34.4005 27.4466 34.4005 27.22L34.2305 26.54C34.2305 25.7466 33.8905 25.1233 33.2105 24.67C32.7571 24.4433 32.5305 24.1033 32.5305 23.65V22.97C32.5305 22.5166 32.7571 22.12 33.2105 21.78L36.1005 19.23C36.4405 18.89 36.6671 18.4933 36.7805 18.04C36.8938 17.5866 36.8938 17.105 36.7805 16.595C36.6671 16.085 36.4121 15.66 36.0155 15.32C35.6188 14.98 35.1371 14.7533 34.5705 14.64H34.2305C33.8905 14.64 33.5505 14.47 33.2105 14.13C32.8705 13.79 32.8138 13.3933 33.0405 12.94L34.7405 10.22C35.8738 11.0133 36.8938 11.8633 37.8005 12.77C37.5738 13.3366 37.4038 13.9033 37.2905 14.47C37.2905 15.3766 37.5738 16.2266 38.1405 17.02L40.5205 20.25C40.6338 20.3633 40.8038 20.42 41.0305 20.42C41.2571 20.42 41.4271 20.3633 41.5405 20.25L41.8805 19.57C42.4471 21.27 42.7871 23.0266 42.9005 24.84ZM42.9005 16.34L41.0305 18.89L39.1605 16.34C38.7071 15.7733 38.5088 15.1783 38.5655 14.555C38.6221 13.9316 38.8771 13.365 39.3305 12.855C39.7838 12.345 40.3505 12.09 41.0305 12.09C41.7105 12.09 42.2771 12.345 42.7305 12.855C43.1838 13.365 43.4388 13.9316 43.4955 14.555C43.5521 15.1783 43.3538 15.7733 42.9005 16.34Z" fill="white"/>
</svg>
