<svg width="51" height="51" viewBox="0 0 51 51" fill="none" xmlns="http://www.w3.org/2000/svg">
<path d="M44.88 35.19C45.6733 34.6233 46.2967 33.915 46.75 33.065C47.2033 32.215 47.43 31.28 47.43 30.26C47.43 28.56 46.835 27.115 45.645 25.925C44.455 24.735 43.01 24.14 41.31 24.14C39.61 24.14 38.1367 24.735 36.89 25.925C35.6433 27.115 35.02 28.56 35.02 30.26C35.02 31.28 35.2467 32.215 35.7 33.065C36.1533 33.915 36.7767 34.6233 37.57 35.19C36.3233 35.7567 35.19 36.4933 34.17 37.4C33.15 35.2467 31.5067 33.7167 29.24 32.81C30.0333 32.2433 30.6283 31.535 31.025 30.685C31.4217 29.835 31.62 28.9 31.62 27.88C31.62 26.18 31.025 24.735 29.835 23.545C28.645 22.355 27.2 21.76 25.5 21.76C23.8 21.76 22.355 22.355 21.165 23.545C19.975 24.735 19.38 26.18 19.38 27.88C19.38 28.9 19.5783 29.835 19.975 30.685C20.3717 31.535 20.9667 32.2433 21.76 32.81C19.4933 33.7167 17.85 35.2467 16.83 37.4C15.81 36.4933 14.6767 35.7567 13.43 35.19C14.2233 34.6233 14.8467 33.915 15.3 33.065C15.7533 32.215 15.98 31.28 15.98 30.26C15.98 28.56 15.3567 27.115 14.11 25.925C12.8633 24.735 11.39 24.14 9.69 24.14C7.99 24.14 6.545 24.735 5.355 25.925C4.165 27.115 3.57 28.56 3.57 30.26C3.57 31.28 3.79667 32.215 4.25 33.065C4.70333 33.915 5.32667 34.6233 6.12 35.19C4.30667 35.9833 2.83333 37.1733 1.7 38.76C0.566667 40.3467 0 42.16 0 44.2V49.98C0 50.32 0.085 50.575 0.255 50.745C0.425 50.915 0.68 51 1.02 51H49.98C50.32 51 50.575 50.915 50.745 50.745C50.915 50.575 51 50.32 51 49.98V44.2C51 42.16 50.4333 40.3467 49.3 38.76C48.1667 37.1733 46.6933 35.9833 44.88 35.19ZM5.61 30.26C5.61 29.1267 6.00667 28.1633 6.8 27.37C7.59333 26.5767 8.585 26.18 9.775 26.18C10.965 26.18 11.9567 26.5767 12.75 27.37C13.5433 28.1633 13.94 29.1267 13.94 30.26C13.94 31.3933 13.5433 32.385 12.75 33.235C11.9567 34.085 10.965 34.51 9.775 34.51C8.585 34.51 7.59333 34.085 6.8 33.235C6.00667 32.385 5.61 31.3933 5.61 30.26ZM15.81 41.82V48.96H2.04V44.2C2.04 42.0467 2.805 40.205 4.335 38.675C5.865 37.145 7.65 36.38 9.69 36.38C10.9367 36.38 12.1267 36.6633 13.26 37.23C14.3933 37.7967 15.3 38.59 15.98 39.61C15.8667 40.29 15.81 41.0267 15.81 41.82ZM21.25 27.88C21.25 26.7467 21.675 25.755 22.525 24.905C23.375 24.055 24.3667 23.63 25.5 23.63C26.6333 23.63 27.625 24.055 28.475 24.905C29.325 25.755 29.75 26.7467 29.75 27.88C29.75 29.0133 29.325 30.005 28.475 30.855C27.625 31.705 26.6333 32.13 25.5 32.13C24.3667 32.13 23.375 31.705 22.525 30.855C21.675 30.005 21.25 29.0133 21.25 27.88ZM33.32 48.96H31.28V45.9C31.28 45.56 31.195 45.305 31.025 45.135C30.855 44.965 30.6283 44.88 30.345 44.88C30.0617 44.88 29.8067 44.965 29.58 45.135C29.3533 45.305 29.24 45.56 29.24 45.9V48.96H17.68V41.82C17.68 39.6667 18.445 37.825 19.975 36.295C21.505 34.765 23.3467 34 25.5 34C27.6533 34 29.495 34.765 31.025 36.295C32.555 37.825 33.32 39.6667 33.32 41.82V48.96ZM37.06 30.26C37.06 29.1267 37.4567 28.1633 38.25 27.37C39.0433 26.5767 40.035 26.18 41.225 26.18C42.415 26.18 43.4067 26.5767 44.2 27.37C44.9933 28.1633 45.39 29.1267 45.39 30.26C45.39 31.3933 44.9933 32.385 44.2 33.235C43.4067 34.085 42.415 34.51 41.225 34.51C40.035 34.51 39.0433 34.085 38.25 33.235C37.4567 32.385 37.06 31.3933 37.06 30.26ZM48.96 48.96H35.19V41.82C35.19 41.0267 35.1333 40.29 35.02 39.61C35.7 38.59 36.6067 37.7967 37.74 37.23C38.8733 36.6633 40.0633 36.38 41.31 36.38C43.35 36.38 45.135 37.145 46.665 38.675C48.195 40.205 48.96 42.0467 48.96 44.2V48.96ZM35.36 3.06C35.1333 2.83333 34.8783 2.72 34.595 2.72C34.3117 2.72 34.1133 2.83333 34 3.06L30.6 6.46C30.3733 6.68666 30.26 6.94167 30.26 7.225C30.26 7.50833 30.345 7.735 30.515 7.905C30.685 8.075 30.9117 8.16 31.195 8.16C31.4783 8.16 31.7333 8.04667 31.96 7.82L35.36 4.42C35.5867 4.30667 35.7 4.10833 35.7 3.825C35.7 3.54167 35.5867 3.28667 35.36 3.06ZM20.4 6.46L17 3.06C16.8867 2.83333 16.6883 2.72 16.405 2.72C16.1217 2.72 15.8667 2.83333 15.64 3.06C15.4133 3.28667 15.3 3.54167 15.3 3.825C15.3 4.10833 15.4133 4.30667 15.64 4.42L19.04 7.82C19.2667 8.04667 19.5217 8.16 19.805 8.16C20.0883 8.16 20.315 8.075 20.485 7.905C20.655 7.735 20.74 7.50833 20.74 7.225C20.74 6.94167 20.6267 6.68666 20.4 6.46ZM25.5 0C25.2733 0 25.0467 0.0849991 24.82 0.255001C24.5933 0.424999 24.48 0.68 24.48 1.02V3.06C24.48 3.4 24.5933 3.655 24.82 3.825C25.0467 3.995 25.2733 4.08 25.5 4.08C25.7267 4.08 25.9533 3.995 26.18 3.825C26.4067 3.655 26.52 3.4 26.52 3.06V1.02C26.52 0.68 26.4067 0.424999 26.18 0.255001C25.9533 0.0849991 25.7267 0 25.5 0ZM33.32 11.22C33.0933 10.6533 32.6967 10.3133 32.13 10.2L28.39 9.69L26.86 6.46C26.52 5.89333 26.0667 5.61 25.5 5.61C24.9333 5.61 24.48 5.89333 24.14 6.46L22.61 9.69L18.87 10.2C18.3033 10.3133 17.935 10.6533 17.765 11.22C17.595 11.7867 17.7367 12.2967 18.19 12.75L20.74 15.3L20.06 18.87C20.06 19.55 20.2867 20.06 20.74 20.4C20.9667 20.5133 21.2217 20.57 21.505 20.57C21.7883 20.57 22.0433 20.5133 22.27 20.4L25.5 18.7L28.73 20.4C29.2967 20.74 29.8067 20.74 30.26 20.4C30.7133 20.06 30.94 19.55 30.94 18.87L30.26 15.3L32.81 12.75C33.2633 12.2967 33.4333 11.7867 33.32 11.22ZM28.73 14.11C28.2767 14.45 28.1067 14.8467 28.22 15.3L28.73 18.19L26.18 16.83C25.9533 16.7167 25.7267 16.66 25.5 16.66C25.2733 16.66 25.0467 16.7167 24.82 16.83L22.27 18.19L22.78 15.3C22.8933 14.8467 22.7233 14.45 22.27 14.11L20.23 12.07L23.12 11.73C23.6867 11.6167 24.0833 11.3333 24.31 10.88L25.5 8.33L26.86 11.05C26.9733 11.39 27.2567 11.56 27.71 11.56L30.77 12.07L28.73 14.11ZM30.94 41.31C30.8267 41.0833 30.6283 40.97 30.345 40.97C30.0617 40.97 29.8067 41.0833 29.58 41.31C29.3533 41.5367 29.24 41.7633 29.24 41.99C29.24 42.2167 29.3533 42.4433 29.58 42.67C29.8067 42.8967 30.0617 43.01 30.345 43.01C30.6283 43.01 30.855 42.8967 31.025 42.67C31.195 42.4433 31.28 42.2167 31.28 41.99C31.28 41.7633 31.1667 41.5367 30.94 41.31Z" fill="white"/>
</svg>
