<svg width="51" height="51" viewBox="0 0 51 51" fill="none" xmlns="http://www.w3.org/2000/svg">
<path d="M51 42.67V36.38L48.62 35.7L49.81 33.49L45.39 29.07L43.35 30.43H43.18L42.67 28.05H36.38L35.7 30.43L33.49 29.07L29.07 33.49L30.43 35.7L28.05 36.38V42.67L30.43 43.18V43.35L29.07 45.39L33.49 49.81L35.7 48.62L36.38 51H42.67L43.18 48.62H43.35L45.39 49.81L49.81 45.39L48.62 43.35V43.18L51 42.67ZM47.77 45.22L45.22 47.77L43.35 46.75L41.82 47.43L41.31 49.3H37.74L37.23 47.43L35.53 46.75L33.83 47.77L31.28 45.22L32.3 43.35L31.62 41.82L29.58 41.31V37.74L31.62 37.23L32.3 35.53L31.28 33.83L33.83 31.28L35.53 32.3L37.23 31.62L37.57 29.58H41.31L41.82 31.62L43.35 32.3L45.22 31.28L47.77 33.83L46.75 35.53L47.43 37.23L49.3 37.57V41.31L47.43 41.82L46.75 43.35L47.77 45.22ZM39.44 32.98C37.6267 32.98 36.0967 33.6033 34.85 34.85C33.6033 36.0967 32.98 37.6267 32.98 39.44C32.98 41.2533 33.6033 42.8117 34.85 44.115C36.0967 45.4183 37.6267 46.07 39.44 46.07C41.2533 46.07 42.8117 45.4183 44.115 44.115C45.4183 42.8117 46.07 41.2533 46.07 39.44C46.07 37.6267 45.4183 36.0967 44.115 34.85C42.8117 33.6033 41.2533 32.98 39.44 32.98ZM39.44 44.37C38.08 44.37 36.9183 43.8883 35.955 42.925C34.9917 41.9617 34.51 40.8 34.51 39.44C34.51 38.08 34.9917 36.9183 35.955 35.955C36.9183 34.9917 38.08 34.51 39.44 34.51C40.8 34.51 41.9617 34.9917 42.925 35.955C43.8883 36.9183 44.37 38.08 44.37 39.44C44.37 40.8 43.8883 41.9617 42.925 42.925C41.9617 43.8883 40.8 44.37 39.44 44.37ZM39.44 36.21C38.5333 36.21 37.7683 36.5217 37.145 37.145C36.5217 37.7683 36.21 38.5333 36.21 39.44C36.21 40.3467 36.5217 41.14 37.145 41.82C37.7683 42.5 38.5333 42.84 39.44 42.84C40.3467 42.84 41.14 42.5 41.82 41.82C42.5 41.14 42.84 40.3467 42.84 39.44C42.84 38.5333 42.5 37.7683 41.82 37.145C41.14 36.5217 40.3467 36.21 39.44 36.21ZM39.44 41.14C38.9867 41.14 38.6183 40.97 38.335 40.63C38.0517 40.29 37.91 39.8933 37.91 39.44C37.91 38.9867 38.0517 38.6183 38.335 38.335C38.6183 38.0517 38.9867 37.91 39.44 37.91C39.8933 37.91 40.29 38.0517 40.63 38.335C40.97 38.6183 41.14 38.9867 41.14 39.44C41.14 39.8933 40.97 40.29 40.63 40.63C40.29 40.97 39.8933 41.14 39.44 41.14ZM20.91 13.94C21.1367 14.7333 21.59 15.4133 22.27 15.98V16.66L18.36 18.19C17.5667 18.53 16.915 19.04 16.405 19.72C15.895 20.4 15.64 21.1933 15.64 22.1V26.35H35.36V22.1C35.36 21.1933 35.105 20.4 34.595 19.72C34.085 19.04 33.4333 18.53 32.64 18.19L28.73 16.66V15.98C29.41 15.4133 29.8633 14.7333 30.09 13.94C30.8833 13.8267 31.5633 13.4583 32.13 12.835C32.6967 12.2117 32.98 11.5033 32.98 10.71V7.48C32.98 5.44 32.2433 3.68333 30.77 2.21C29.2967 0.736668 27.54 0 25.5 0C23.46 0 21.7033 0.736668 20.23 2.21C18.7567 3.68333 18.02 5.44 18.02 7.48V10.71C18.02 11.5033 18.3033 12.2117 18.87 12.835C19.4367 13.4583 20.1167 13.8267 20.91 13.94ZM27.2 17L25.5 19.72L23.8 17C24.3667 17.2267 24.9333 17.34 25.5 17.34C26.0667 17.34 26.6333 17.2267 27.2 17ZM22.61 18.36L24.31 21.08L22.61 21.93L21.59 18.7L22.61 18.36ZM33.66 22.1V24.65H17.34V22.1C17.34 21.5333 17.4817 21.0517 17.765 20.655C18.0483 20.2583 18.4167 19.9467 18.87 19.72L20.06 19.21L21.76 24.14L25.5 22.27L29.24 24.14L30.94 19.21L32.13 19.72C32.5833 19.9467 32.9517 20.2583 33.235 20.655C33.5183 21.0517 33.66 21.5333 33.66 22.1ZM29.41 18.7L28.39 21.93L26.69 21.08L28.39 18.36L29.41 18.7ZM25.5 15.64C24.5933 15.64 23.8283 15.3283 23.205 14.705C22.5817 14.0817 22.27 13.3167 22.27 12.41V9.01C23.5167 8.89667 24.5933 8.44333 25.5 7.65C26.4067 8.44333 27.4833 8.89667 28.73 9.01V12.41C28.73 13.3167 28.4183 14.0817 27.795 14.705C27.1717 15.3283 26.4067 15.64 25.5 15.64ZM30.43 12.07V9.35C30.9967 9.57667 31.28 10.0017 31.28 10.625C31.28 11.2483 30.9967 11.73 30.43 12.07ZM25.5 1.7C27.0867 1.7 28.4467 2.26667 29.58 3.4C30.7133 4.53333 31.28 5.89333 31.28 7.48V7.82C30.7133 7.59333 30.1467 7.48 29.58 7.48H29.41C28.1633 7.48 27.03 6.97 26.01 5.95L25.5 5.44L24.99 5.95C23.97 6.97 22.8367 7.48 21.59 7.48H21.42C20.8533 7.48 20.2867 7.59333 19.72 7.82V7.48C19.72 5.89333 20.2867 4.53333 21.42 3.4C22.5533 2.26667 23.9133 1.7 25.5 1.7ZM20.57 9.35V12.07C20.0033 11.73 19.72 11.2483 19.72 10.625C19.72 10.0017 20.0033 9.57667 20.57 9.35ZM0 51H16.49V29.58H0V51ZM1.7 31.28H14.79V49.3H1.7V31.28ZM3.23 32.98H13.09V34.51H3.23V32.98ZM3.23 36.21H4.93V37.91H3.23V36.21ZM6.63 36.21H13.09V37.91H6.63V36.21ZM3.23 39.44H13.09V41.14H3.23V39.44ZM3.23 42.84H13.09V44.37H3.23V42.84ZM11.56 46.07H13.09V47.77H11.56V46.07ZM3.23 46.07H9.86V47.77H3.23V46.07ZM21.93 36.72L20.74 35.53L17 39.44L20.74 43.35L21.93 42.16L20.06 40.29H26.35V38.59H20.06L21.93 36.72ZM9.01 13.09C9.01 12.8633 9.095 12.6933 9.265 12.58C9.435 12.4667 9.63333 12.41 9.86 12.41H13.6L11.73 14.28L12.92 15.47L16.83 11.56L12.92 7.65L11.73 8.84L13.6 10.71H9.86C9.18 10.71 8.61333 10.9367 8.16 11.39C7.70667 11.8433 7.48 12.41 7.48 13.09V28.05H9.01V13.09ZM39.44 13.09V23.46L37.57 21.59L36.38 22.78L40.29 26.69L44.2 22.78L43.01 21.59L41.14 23.46V13.09C41.14 12.41 40.885 11.8433 40.375 11.39C39.865 10.9367 39.27 10.71 38.59 10.71H34.51V12.41H38.59C38.8167 12.41 39.015 12.4667 39.185 12.58C39.355 12.6933 39.44 12.8633 39.44 13.09Z" fill="white"/>
</svg>
