<svg width="51" height="51" viewBox="0 0 51 51" fill="none" xmlns="http://www.w3.org/2000/svg">
<path d="M48.28 45.73H47.6V22.78C47.6 22.2133 47.4017 21.7317 47.005 21.335C46.6083 20.9383 46.1833 20.74 45.73 20.74H32.13V2.55C32.13 1.87 31.875 1.275 31.365 0.764999C30.855 0.255001 30.26 0 29.58 0H5.95C5.27 0 4.675 0.255001 4.165 0.764999C3.655 1.275 3.4 1.87 3.4 2.55V45.73H2.72C1.92667 45.73 1.275 45.985 0.765 46.495C0.255 47.005 0 47.6283 0 48.365C0 49.1017 0.255 49.725 0.765 50.235C1.275 50.745 1.92667 51 2.72 51H48.28C49.0733 51 49.725 50.745 50.235 50.235C50.745 49.725 51 49.1017 51 48.365C51 47.6283 50.745 47.005 50.235 46.495C49.725 45.985 49.0733 45.73 48.28 45.73ZM4.93 2.55C4.93 2.21 5.015 1.955 5.185 1.785C5.355 1.615 5.61 1.53 5.95 1.53H29.58C29.92 1.53 30.175 1.615 30.345 1.785C30.515 1.955 30.6 2.21 30.6 2.55V20.74H24.31C23.7433 20.74 23.29 20.9383 22.95 21.335C22.61 21.7317 22.44 22.2133 22.44 22.78V39.95C22.44 40.0633 22.4967 40.205 22.61 40.375C22.7233 40.545 22.8933 40.63 23.12 40.63C23.3467 40.63 23.5167 40.545 23.63 40.375C23.7433 40.205 23.8 40.0633 23.8 39.95V22.78C23.8 22.44 23.97 22.27 24.31 22.27H45.73C45.9567 22.27 46.07 22.44 46.07 22.78V45.73H23.8V43.35C23.8 43.1233 23.7433 42.9533 23.63 42.84C23.5167 42.7267 23.3467 42.67 23.12 42.67C22.8933 42.67 22.7233 42.7267 22.61 42.84C22.4967 42.9533 22.44 43.1233 22.44 43.35V45.73H4.93V2.55ZM48.28 49.47H2.72C2.38 49.47 2.09667 49.3567 1.87 49.13C1.64333 48.9033 1.53 48.6483 1.53 48.365C1.53 48.0817 1.64333 47.8267 1.87 47.6C2.09667 47.3733 2.38 47.26 2.72 47.26H48.28C48.62 47.26 48.9033 47.3733 49.13 47.6C49.3567 47.8267 49.47 48.0817 49.47 48.365C49.47 48.6483 49.3567 48.9033 49.13 49.13C48.9033 49.3567 48.62 49.47 48.28 49.47ZM11.73 4.59H8.67C8.21667 4.59 7.84833 4.73167 7.565 5.015C7.28167 5.29833 7.14 5.66667 7.14 6.12V9.18C7.14 9.52 7.28167 9.83167 7.565 10.115C7.84833 10.3983 8.21667 10.54 8.67 10.54H11.73C12.07 10.54 12.3817 10.3983 12.665 10.115C12.9483 9.83167 13.09 9.52 13.09 9.18V6.12C13.09 5.66667 12.9483 5.29833 12.665 5.015C12.3817 4.73167 12.07 4.59 11.73 4.59ZM11.73 9.01H8.67V6.12H11.73V9.01ZM19.38 4.59H16.32C15.8667 4.59 15.4983 4.73167 15.215 5.015C14.9317 5.29833 14.79 5.66667 14.79 6.12V9.18C14.79 9.52 14.9317 9.83167 15.215 10.115C15.4983 10.3983 15.8667 10.54 16.32 10.54H19.38C19.72 10.54 20.0317 10.3983 20.315 10.115C20.5983 9.83167 20.74 9.52 20.74 9.18V6.12C20.74 5.66667 20.5983 5.29833 20.315 5.015C20.0317 4.73167 19.72 4.59 19.38 4.59ZM19.21 9.01H16.32V6.12H19.21V9.01ZM23.8 10.54H26.86C27.3133 10.54 27.6817 10.3983 27.965 10.115C28.2483 9.83167 28.39 9.52 28.39 9.18V6.12C28.39 5.66667 28.2483 5.29833 27.965 5.015C27.6817 4.73167 27.3133 4.59 26.86 4.59H23.8C23.46 4.59 23.1483 4.73167 22.865 5.015C22.5817 5.29833 22.44 5.66667 22.44 6.12V9.18C22.44 9.52 22.5817 9.83167 22.865 10.115C23.1483 10.3983 23.46 10.54 23.8 10.54ZM23.8 6.12H26.86V9.01H23.8V6.12ZM11.73 13.94H8.67C8.21667 13.94 7.84833 14.0817 7.565 14.365C7.28167 14.6483 7.14 14.96 7.14 15.3V18.36C7.14 18.8133 7.28167 19.1817 7.565 19.465C7.84833 19.7483 8.21667 19.89 8.67 19.89H11.73C12.07 19.89 12.3817 19.7483 12.665 19.465C12.9483 19.1817 13.09 18.8133 13.09 18.36V15.3C13.09 14.96 12.9483 14.6483 12.665 14.365C12.3817 14.0817 12.07 13.94 11.73 13.94ZM11.73 18.36H8.67V15.3H11.73V18.36ZM19.38 13.94H16.32C15.8667 13.94 15.4983 14.0817 15.215 14.365C14.9317 14.6483 14.79 14.96 14.79 15.3V18.36C14.79 18.8133 14.9317 19.1817 15.215 19.465C15.4983 19.7483 15.8667 19.89 16.32 19.89H19.38C19.72 19.89 20.0317 19.7483 20.315 19.465C20.5983 19.1817 20.74 18.8133 20.74 18.36V15.3C20.74 14.96 20.5983 14.6483 20.315 14.365C20.0317 14.0817 19.72 13.94 19.38 13.94ZM19.21 18.36H16.32V15.3H19.21V18.36ZM23.8 19.89H26.86C27.3133 19.89 27.6817 19.7483 27.965 19.465C28.2483 19.1817 28.39 18.8133 28.39 18.36V15.3C28.39 14.96 28.2483 14.6483 27.965 14.365C27.6817 14.0817 27.3133 13.94 26.86 13.94H23.8C23.46 13.94 23.1483 14.0817 22.865 14.365C22.5817 14.6483 22.44 14.96 22.44 15.3V18.36C22.44 18.8133 22.5817 19.1817 22.865 19.465C23.1483 19.7483 23.46 19.89 23.8 19.89ZM23.8 15.3H26.86V18.36H23.8V15.3ZM11.73 23.29H8.67C8.21667 23.29 7.84833 23.4317 7.565 23.715C7.28167 23.9983 7.14 24.31 7.14 24.65V27.71C7.14 28.1633 7.28167 28.5317 7.565 28.815C7.84833 29.0983 8.21667 29.24 8.67 29.24H11.73C12.07 29.24 12.3817 29.0983 12.665 28.815C12.9483 28.5317 13.09 28.1633 13.09 27.71V24.65C13.09 24.31 12.9483 23.9983 12.665 23.715C12.3817 23.4317 12.07 23.29 11.73 23.29ZM11.73 27.71H8.67V24.65H11.73V27.71ZM19.38 23.29H16.32C15.8667 23.29 15.4983 23.4317 15.215 23.715C14.9317 23.9983 14.79 24.31 14.79 24.65V27.71C14.79 28.1633 14.9317 28.5317 15.215 28.815C15.4983 29.0983 15.8667 29.24 16.32 29.24H19.38C19.72 29.24 20.0317 29.0983 20.315 28.815C20.5983 28.5317 20.74 28.1633 20.74 27.71V24.65C20.74 24.31 20.5983 23.9983 20.315 23.715C20.0317 23.4317 19.72 23.29 19.38 23.29ZM19.21 27.71H16.32V24.65H19.21V27.71ZM11.73 32.47H8.67C8.21667 32.47 7.84833 32.64 7.565 32.98C7.28167 33.32 7.14 33.66 7.14 34V37.06C7.14 37.5133 7.28167 37.8817 7.565 38.165C7.84833 38.4483 8.21667 38.59 8.67 38.59H11.73C12.07 38.59 12.3817 38.4483 12.665 38.165C12.9483 37.8817 13.09 37.5133 13.09 37.06V34C13.09 33.66 12.9483 33.32 12.665 32.98C12.3817 32.64 12.07 32.47 11.73 32.47ZM11.73 37.06H8.67V34H11.73V37.06ZM19.38 32.47H16.32C15.8667 32.47 15.4983 32.64 15.215 32.98C14.9317 33.32 14.79 33.66 14.79 34V37.06C14.79 37.5133 14.9317 37.8817 15.215 38.165C15.4983 38.4483 15.8667 38.59 16.32 38.59H19.38C19.72 38.59 20.0317 38.4483 20.315 38.165C20.5983 37.8817 20.74 37.5133 20.74 37.06V34C20.74 33.66 20.5983 33.32 20.315 32.98C20.0317 32.64 19.72 32.47 19.38 32.47ZM19.21 37.06H16.32V34H19.21V37.06ZM26.86 30.09H29.75C30.09 30.09 30.4017 29.9767 30.685 29.75C30.9683 29.5233 31.11 29.24 31.11 28.9V26.01C31.11 25.67 30.9683 25.3867 30.685 25.16C30.4017 24.9333 30.09 24.82 29.75 24.82H26.86C26.52 24.82 26.2367 24.9333 26.01 25.16C25.7833 25.3867 25.67 25.67 25.67 26.01V28.9C25.67 29.24 25.7833 29.5233 26.01 29.75C26.2367 29.9767 26.52 30.09 26.86 30.09ZM27.2 26.35H29.58V28.73H27.2V26.35ZM26.86 36.21H29.75C30.09 36.21 30.4017 36.0967 30.685 35.87C30.9683 35.6433 31.11 35.36 31.11 35.02V32.13C31.11 31.79 30.9683 31.5067 30.685 31.28C30.4017 31.0533 30.09 30.94 29.75 30.94H26.86C26.52 30.94 26.2367 31.0533 26.01 31.28C25.7833 31.5067 25.67 31.79 25.67 32.13V35.02C25.67 35.36 25.7833 35.6433 26.01 35.87C26.2367 36.0967 26.52 36.21 26.86 36.21ZM27.2 32.47H29.58V34.85H27.2V32.47ZM26.86 42.33H29.75C30.09 42.33 30.4017 42.2167 30.685 41.99C30.9683 41.7633 31.11 41.48 31.11 41.14V38.25C31.11 37.91 30.9683 37.6267 30.685 37.4C30.4017 37.1733 30.09 37.06 29.75 37.06H26.86C26.52 37.06 26.2367 37.1733 26.01 37.4C25.7833 37.6267 25.67 37.91 25.67 38.25V41.14C25.67 41.48 25.7833 41.7633 26.01 41.99C26.2367 42.2167 26.52 42.33 26.86 42.33ZM27.2 38.42H29.58V40.97H27.2V38.42ZM33.49 30.09H36.38C36.72 30.09 37.0317 29.9767 37.315 29.75C37.5983 29.5233 37.74 29.24 37.74 28.9V26.01C37.74 25.67 37.5983 25.3867 37.315 25.16C37.0317 24.9333 36.72 24.82 36.38 24.82H33.49C33.15 24.82 32.8667 24.9333 32.64 25.16C32.4133 25.3867 32.3 25.67 32.3 26.01V28.9C32.3 29.24 32.4133 29.5233 32.64 29.75C32.8667 29.9767 33.15 30.09 33.49 30.09ZM33.83 26.35H36.21V28.73H33.83V26.35ZM33.49 36.21H36.38C36.72 36.21 37.0317 36.0967 37.315 35.87C37.5983 35.6433 37.74 35.36 37.74 35.02V32.13C37.74 31.79 37.5983 31.5067 37.315 31.28C37.0317 31.0533 36.72 30.94 36.38 30.94H33.49C33.15 30.94 32.8667 31.0533 32.64 31.28C32.4133 31.5067 32.3 31.79 32.3 32.13V35.02C32.3 35.36 32.4133 35.6433 32.64 35.87C32.8667 36.0967 33.15 36.21 33.49 36.21ZM33.83 32.47H36.21V34.85H33.83V32.47ZM33.49 42.33H36.38C36.72 42.33 37.0317 42.2167 37.315 41.99C37.5983 41.7633 37.74 41.48 37.74 41.14V38.25C37.74 37.91 37.5983 37.6267 37.315 37.4C37.0317 37.1733 36.72 37.06 36.38 37.06H33.49C33.15 37.06 32.8667 37.1733 32.64 37.4C32.4133 37.6267 32.3 37.91 32.3 38.25V41.14C32.3 41.48 32.4133 41.7633 32.64 41.99C32.8667 42.2167 33.15 42.33 33.49 42.33ZM33.83 38.42H36.21V40.97H33.83V38.42ZM40.12 30.09H43.01C43.35 30.09 43.6617 29.9767 43.945 29.75C44.2283 29.5233 44.37 29.24 44.37 28.9V26.01C44.37 25.67 44.2283 25.3867 43.945 25.16C43.6617 24.9333 43.35 24.82 43.01 24.82H40.12C39.78 24.82 39.4967 24.9333 39.27 25.16C39.0433 25.3867 38.93 25.67 38.93 26.01V28.9C38.93 29.24 39.0433 29.5233 39.27 29.75C39.4967 29.9767 39.78 30.09 40.12 30.09ZM40.46 26.35H42.84V28.73H40.46V26.35ZM40.12 36.21H43.01C43.35 36.21 43.6617 36.0967 43.945 35.87C44.2283 35.6433 44.37 35.36 44.37 35.02V32.13C44.37 31.79 44.2283 31.5067 43.945 31.28C43.6617 31.0533 43.35 30.94 43.01 30.94H40.12C39.78 30.94 39.4967 31.0533 39.27 31.28C39.0433 31.5067 38.93 31.79 38.93 32.13V35.02C38.93 35.36 39.0433 35.6433 39.27 35.87C39.4967 36.0967 39.78 36.21 40.12 36.21ZM40.46 32.47H42.84V34.85H40.46V32.47ZM40.12 42.33H43.01C43.35 42.33 43.6617 42.2167 43.945 41.99C44.2283 41.7633 44.37 41.48 44.37 41.14V38.25C44.37 37.91 44.2283 37.6267 43.945 37.4C43.6617 37.1733 43.35 37.06 43.01 37.06H40.12C39.78 37.06 39.4967 37.1733 39.27 37.4C39.0433 37.6267 38.93 37.91 38.93 38.25V41.14C38.93 41.48 39.0433 41.7633 39.27 41.99C39.4967 42.2167 39.78 42.33 40.12 42.33ZM40.46 38.42H42.84V40.97H40.46V38.42ZM40.8 17.34C41.0267 17.4533 41.31 17.51 41.65 17.51C41.99 17.51 42.2733 17.4533 42.5 17.34C43.52 16.5467 44.4267 15.6967 45.22 14.79C46.4667 13.3167 47.3167 11.7867 47.77 10.2C47.77 9.97333 47.7133 9.775 47.6 9.605C47.4867 9.435 47.345 9.32167 47.175 9.265C47.005 9.20833 46.835 9.23667 46.665 9.35C46.495 9.46333 46.3533 9.63333 46.24 9.86C45.9 11.22 45.1633 12.58 44.03 13.94C43.35 14.7333 42.5567 15.47 41.65 16.15C40.5167 15.2433 39.5533 14.28 38.76 13.26C37.4 11.56 36.72 9.86 36.72 8.16C36.72 6.91333 37.2017 5.80833 38.165 4.845C39.1283 3.88167 40.29 3.4 41.65 3.4C42.67 3.4 43.605 3.71167 44.455 4.335C45.305 4.95833 45.9 5.72333 46.24 6.63C46.3533 6.85667 46.495 7.02666 46.665 7.14C46.835 7.25333 47.005 7.28167 47.175 7.225C47.345 7.16833 47.4867 7.02666 47.6 6.8C47.7133 6.57333 47.7133 6.40333 47.6 6.29C47.26 4.93 46.5233 3.85333 45.39 3.06C44.2567 2.26667 43.01 1.87 41.65 1.87C39.8367 1.87 38.3067 2.49333 37.06 3.74C35.8133 4.98667 35.19 6.46 35.19 8.16C35.19 10.2 35.9833 12.1833 37.57 14.11C38.4767 15.3567 39.5533 16.4333 40.8 17.34ZM41.65 4.76C40.63 4.76 39.78 5.1 39.1 5.78C38.42 6.46 38.08 7.28167 38.08 8.245C38.08 9.20833 38.42 10.03 39.1 10.71C39.78 11.39 40.6017 11.73 41.565 11.73C42.5283 11.73 43.3783 11.39 44.115 10.71C44.8517 10.03 45.22 9.20833 45.22 8.245C45.22 7.28167 44.8517 6.46 44.115 5.78C43.3783 5.1 42.5567 4.76 41.65 4.76ZM41.65 10.2C41.0833 10.2 40.6017 10.0017 40.205 9.605C39.8083 9.20833 39.61 8.72667 39.61 8.16C39.61 7.59333 39.8083 7.11167 40.205 6.715C40.6017 6.31833 41.0833 6.12 41.65 6.12C42.2167 6.12 42.6983 6.31833 43.095 6.715C43.4917 7.11167 43.69 7.59333 43.69 8.16C43.69 8.72667 43.4917 9.20833 43.095 9.605C42.6983 10.0017 42.2167 10.2 41.65 10.2Z" fill="white"/>
</svg>
